<?xml version="1.0" encoding="utf-8"?>
<!-- Generator: Adobe Illustrator 28.0.0, SVG Export Plug-In . SVG Version: 6.00 Build 0)  -->
<svg version="1.1" xmlns="http://www.w3.org/2000/svg" xmlns:xlink="http://www.w3.org/1999/xlink" x="0px" y="0px"
	 viewBox="0 0 117 48" style="enable-background:new 0 0 117 48;" xml:space="preserve">
<style type="text/css">
	.st0{display:none;}
	.st1{display:inline;opacity:0.3;}
	.st2{fill:#FF153C;}
	.st3{clip-path:url(#SVGID_00000054238865522104188630000003315232831479973760_);fill:#6D0018;fill-opacity:0.5;}
	.st4{fill:#FBB03B;}
	.st5{fill:#BC842C;}
	.st6{fill:#E4E2D5;}
	.st7{clip-path:url(#SVGID_00000086671782892890089900000013961553585764876681_);fill:#B3B3B3;}
	.st8{fill:#12273F;}
</style>
<g id="Layer_2" class="st0">
	<g id="_x30_spptB.tif" class="st1">
		
			<image style="overflow:visible;" width="1052" height="466" id="Layer_0_00000000930965560937510740000001946527458564797326_" xlink:href="EB16B1E60F10553A.png"  transform="matrix(0.1402 0 0 0.1402 -12.4193 -13.9014)">
		</image>
	</g>
	<text transform="matrix(1 0 0 1 0.4668 -10.9395)" style="display:inline;"><tspan x="0" y="0" style="font-family:'MyriadPro-Regular'; font-size:3.493px;">svg 117*48</tspan><tspan x="0" y="4.191" style="font-family:'MyriadPro-Regular'; font-size:3.493px;">png 234*96</tspan></text>
</g>
<g id="Layer_1">
	<g>
		<g>
			<path class="st2" d="M16.216,20.426h5.152v14.096h6.931V20.426h5.152v-5.995H16.216V20.426z M47.057,14.431l-4.29,13.33
				c-0.128,0.397-0.714,0.305-0.714-0.112V14.431h-6.814v20.091h12.508l6.792-20.091H47.057z M76.705,14.431v8.394
				c0,0.387-0.522,0.509-0.693,0.162l-4.237-8.556h-6.772v20.091h6.584v-8.347c0-0.387,0.522-0.509,0.693-0.162l4.217,8.51h6.772
				V14.431H76.705z M91.654,26.502v-4.388c0-1.11,0.442-1.929,1.507-2.206c1.142-0.298,2.196,0.429,2.554,1.617l6.302-3.374
				c-2.484-4.528-7.13-4.468-8.99-4.303c-1.903,0.169-3.853,0.743-5.58,2.22c-1.722,1.473-2.537,3.876-2.537,6.411l-0.001,3.957
				c0,3.771,1.487,6.286,4.056,7.757c4.43,2.535,10.646,0.806,13.16-1.107v-9.643h-6.507v6.019
				C94.695,29.819,91.654,30.229,91.654,26.502z"/>
		</g>
		<g>
			<defs>
				<path id="SVGID_1_" d="M76.705,14.431v8.394c0,0.387-0.522,0.509-0.693,0.162l-4.237-8.556h-6.772v20.091h6.584v-8.347
					c0-0.387,0.522-0.509,0.693-0.162l4.217,8.51h6.772V14.431H76.705z"/>
			</defs>
			<clipPath id="SVGID_00000061440098301896312650000003542323113906414502_">
				<use xlink:href="#SVGID_1_"  style="overflow:visible;"/>
			</clipPath>
			
				<polygon style="clip-path:url(#SVGID_00000061440098301896312650000003542323113906414502_);fill:#6D0018;fill-opacity:0.5;" points="
				76.734,12.541 54.85,35.462 56.792,17.547 72.691,9.394 			"/>
		</g>
		<g>
			<g>
				<g>
					<g>
						<g>
							<path d="M50.684,40.919c-0.203,0.094-0.433,0.144-0.683,0.144c-0.156,0-0.325-0.019-0.5-0.057
								c-0.417-0.089-0.899-0.213-1.348-0.566c-0.317-0.249-0.463-0.389-0.61-0.528c-0.12-0.114-0.24-0.229-0.5-0.433
								c-0.421-0.331-0.757-0.726-0.97-1.141c-0.471-0.922-0.297-1.542-0.068-1.899c0.361-0.572,1.165-0.666,1.89-0.709
								c0.149-0.009,0.325-0.08,0.55-0.222c0.163-0.102,0.292-0.242,0.396-0.427l0.49-0.873c0.087-0.153,0.186-0.304,0.286-0.458
								c0.083-0.127,0.168-0.256,0.247-0.392c0.072-0.126,0.141-0.257,0.21-0.391c0.084-0.163,0.17-0.328,0.265-0.49
								c0.089-0.153,0.187-0.304,0.286-0.455c0.084-0.129,0.169-0.259,0.249-0.394c0.075-0.128,0.146-0.262,0.217-0.396
								c0.085-0.16,0.171-0.322,0.265-0.481l0.502-0.866c0.077-0.132,0.152-0.267,0.228-0.403c0.086-0.156,0.173-0.313,0.265-0.468
								l0.521-0.854c0.096-0.161,0.205-0.314,0.316-0.468c0.084-0.116,0.169-0.233,0.243-0.357l1.018-1.713l0.501-0.86
								c0.069-0.117,0.125-0.243,0.181-0.368c0.082-0.18,0.165-0.36,0.267-0.529c0.096-0.159,0.203-0.312,0.311-0.463
								c0.086-0.122,0.172-0.242,0.249-0.369l0.521-0.862c0.077-0.127,0.142-0.259,0.208-0.392c0.084-0.167,0.168-0.334,0.265-0.494
								c0.099-0.165,0.214-0.321,0.329-0.477c0.085-0.114,0.171-0.228,0.244-0.349c0.074-0.122,0.134-0.251,0.196-0.381
								c0.083-0.174,0.168-0.348,0.267-0.512l0.521-0.856c0.101-0.167,0.216-0.323,0.331-0.477c0.085-0.114,0.171-0.228,0.245-0.348
								c0.082-0.135,0.159-0.273,0.235-0.411c0.087-0.155,0.173-0.31,0.264-0.459l0.526-0.851c0.083-0.136,0.159-0.274,0.235-0.412
								c0.086-0.155,0.171-0.309,0.262-0.458l0.521-0.854c0.104-0.169,0.221-0.327,0.337-0.482c0.084-0.112,0.169-0.223,0.241-0.34
								c0.082-0.133,0.152-0.27,0.222-0.405c0.084-0.164,0.168-0.324,0.261-0.476c0.087-0.143,0.419-0.723,0.506-0.865
								c0.088-0.145,0.17-0.289,0.25-0.429c0.085-0.149,0.168-0.294,0.253-0.434c0.11-0.18,0.237-0.344,0.36-0.502
								c0.082-0.104,0.163-0.205,0.228-0.311c0.09-0.147,0.168-0.293,0.244-0.434c0.083-0.156,0.164-0.305,0.249-0.443
								c0.099-0.16,0.184-0.315,0.262-0.459c0.082-0.149,0.158-0.287,0.234-0.41C64.99,8.101,65.18,7.858,65.3,7.705l0.066-0.085
								l0.024,0.016c0.092-0.127,0.195-0.254,0.316-0.376c0.345-0.348,0.731-0.607,1.149-0.77c0.416-0.163,0.811-0.241,1.205-0.241
								l0.169,0.004c0.447,0.026,0.862,0.105,1.267,0.243c0.346,0.117,0.719,0.28,1.105,0.483c0.394,0.207,0.71,0.47,0.969,0.701
								c0.299,0.267,0.561,0.589,0.779,0.958c0.228,0.386,0.381,0.782,0.457,1.178c0.083,0.444,0.091,0.873,0.021,1.273
								c-0.071,0.417-0.237,0.836-0.478,1.211c-0.051,0.08-0.156,0.208-0.317,0.388c-0.103,0.115-0.233,0.262-0.385,0.441
								c-0.064,0.077-0.126,0.168-0.193,0.266c-0.115,0.167-0.24,0.347-0.393,0.525l-0.633,0.738
								c-0.106,0.123-0.223,0.245-0.342,0.37c-0.105,0.11-0.214,0.223-0.32,0.345c-0.091,0.106-0.182,0.218-0.275,0.333
								c-0.111,0.137-0.225,0.278-0.346,0.417c-0.118,0.136-0.251,0.263-0.388,0.391c-0.103,0.096-0.208,0.193-0.302,0.302
								c-0.097,0.111-0.511,0.612-0.627,0.746l-0.65,0.728c-0.109,0.125-0.222,0.247-0.336,0.369
								c-0.107,0.115-0.216,0.232-0.321,0.353c-0.094,0.107-0.179,0.221-0.266,0.336c-0.109,0.144-0.219,0.289-0.339,0.427
								c-0.094,0.109-0.183,0.224-0.272,0.34c-0.108,0.142-0.218,0.283-0.336,0.419l-0.647,0.729l-0.631,0.744
								c-0.126,0.146-0.269,0.277-0.414,0.408c-0.099,0.089-0.2,0.177-0.287,0.278c-0.1,0.117-0.198,0.238-0.296,0.359
								c-0.106,0.131-0.212,0.262-0.322,0.39c-0.093,0.107-0.175,0.223-0.258,0.338c-0.108,0.149-0.217,0.298-0.337,0.438
								c-0.101,0.117-0.198,0.238-0.296,0.359c-0.107,0.133-0.214,0.266-0.325,0.395c-0.123,0.143-0.258,0.273-0.396,0.403
								c-0.101,0.096-0.203,0.19-0.292,0.295c-0.103,0.121-0.202,0.244-0.301,0.366c-0.106,0.132-0.212,0.263-0.322,0.392
								c-0.098,0.114-0.188,0.235-0.279,0.355c-0.106,0.141-0.213,0.282-0.327,0.416c-0.118,0.139-0.245,0.269-0.372,0.398
								c-0.103,0.104-0.206,0.208-0.3,0.319l-0.635,0.749c-0.108,0.128-0.219,0.253-0.329,0.377c-0.107,0.12-0.214,0.24-0.316,0.363
								c-0.103,0.123-0.51,0.636-0.617,0.763c-0.094,0.113-0.179,0.233-0.265,0.353c-0.105,0.147-0.211,0.293-0.326,0.431
								c-0.116,0.14-0.241,0.271-0.366,0.402c-0.101,0.105-0.202,0.209-0.293,0.32c-0.094,0.114-0.177,0.235-0.26,0.355
								c-0.103,0.148-0.206,0.294-0.317,0.432c-0.123,0.149-0.258,0.286-0.394,0.419c-0.097,0.096-0.194,0.191-0.279,0.294
								c-0.099,0.122-0.19,0.249-0.281,0.375c-0.101,0.14-0.202,0.279-0.308,0.411c-0.115,0.144-0.239,0.277-0.362,0.41
								c-0.099,0.105-0.197,0.209-0.284,0.32c-0.094,0.118-0.174,0.243-0.254,0.366c-0.098,0.15-0.195,0.298-0.301,0.434
								c-0.103,0.132-0.196,0.266-0.288,0.398c-0.092,0.133-0.184,0.263-0.278,0.387c-0.112,0.147-0.232,0.283-0.349,0.415
								c-0.095,0.107-0.189,0.211-0.27,0.321c-0.136,0.184-0.226,0.396-0.26,0.617c-0.045,0.288-0.042,0.536,0.01,0.736
								c0.224,0.858,0.369,1.556,0.042,2.064l-0.411,0.639L50.684,40.919z"/>
							<path d="M50.684,40.919c-0.203,0.094-0.433,0.144-0.683,0.144c-0.156,0-0.325-0.019-0.5-0.057
								c-0.417-0.089-0.899-0.213-1.348-0.566c-0.317-0.249-0.463-0.389-0.61-0.528c-0.12-0.114-0.24-0.229-0.5-0.433
								c-0.421-0.331-0.757-0.726-0.97-1.141c-0.471-0.922-0.297-1.542-0.068-1.899c0.361-0.572,1.165-0.666,1.89-0.709
								c0.149-0.009,0.325-0.08,0.55-0.222c0.163-0.102,0.292-0.242,0.396-0.427l0.49-0.873c0.087-0.153,0.186-0.304,0.286-0.458
								c0.083-0.127,0.168-0.256,0.247-0.392c0.072-0.126,0.141-0.257,0.21-0.391c0.084-0.163,0.17-0.328,0.265-0.49
								c0.089-0.153,0.187-0.304,0.286-0.455c0.084-0.129,0.169-0.259,0.249-0.394c0.075-0.128,0.146-0.262,0.217-0.396
								c0.085-0.16,0.171-0.322,0.265-0.481l0.502-0.866c0.077-0.132,0.152-0.267,0.228-0.403c0.086-0.156,0.173-0.313,0.265-0.468
								l0.521-0.854c0.096-0.161,0.205-0.314,0.316-0.468c0.084-0.116,0.169-0.233,0.243-0.357l1.018-1.713l0.501-0.86
								c0.069-0.117,0.125-0.243,0.181-0.368c0.082-0.18,0.165-0.36,0.267-0.529c0.096-0.159,0.203-0.312,0.311-0.463
								c0.086-0.122,0.172-0.242,0.249-0.369l0.521-0.862c0.077-0.127,0.142-0.259,0.208-0.392c0.084-0.167,0.168-0.334,0.265-0.494
								c0.099-0.165,0.214-0.321,0.329-0.477c0.085-0.114,0.171-0.228,0.244-0.349c0.074-0.122,0.134-0.251,0.196-0.381
								c0.083-0.174,0.168-0.348,0.267-0.512l0.521-0.856c0.101-0.167,0.216-0.323,0.331-0.477c0.085-0.114,0.171-0.228,0.245-0.348
								c0.082-0.135,0.159-0.273,0.235-0.411c0.087-0.155,0.173-0.31,0.264-0.459l0.526-0.851c0.083-0.136,0.159-0.274,0.235-0.412
								c0.086-0.155,0.171-0.309,0.262-0.458l0.521-0.854c0.104-0.169,0.221-0.327,0.337-0.482c0.084-0.112,0.169-0.223,0.241-0.34
								c0.082-0.133,0.152-0.27,0.222-0.405c0.084-0.164,0.168-0.324,0.261-0.476c0.087-0.143,0.419-0.723,0.506-0.865
								c0.088-0.145,0.17-0.289,0.25-0.429c0.085-0.149,0.168-0.294,0.253-0.434c0.11-0.18,0.237-0.344,0.36-0.502
								c0.082-0.104,0.163-0.205,0.228-0.311c0.09-0.147,0.168-0.293,0.244-0.434c0.083-0.156,0.164-0.305,0.249-0.443
								c0.099-0.16,0.184-0.315,0.262-0.459c0.082-0.149,0.158-0.287,0.234-0.41C64.99,8.101,65.18,7.858,65.3,7.705l0.066-0.085
								l0.024,0.016c0.092-0.127,0.195-0.254,0.316-0.376c0.345-0.348,0.731-0.607,1.149-0.77c0.416-0.163,0.811-0.241,1.205-0.241
								l0.169,0.004c0.447,0.026,0.862,0.105,1.267,0.243c0.346,0.117,0.719,0.28,1.105,0.483c0.394,0.207,0.71,0.47,0.969,0.701
								c0.299,0.267,0.561,0.589,0.779,0.958c0.228,0.386,0.381,0.782,0.457,1.178c0.083,0.444,0.091,0.873,0.021,1.273
								c-0.071,0.417-0.237,0.836-0.478,1.211c-0.051,0.08-0.156,0.208-0.317,0.388c-0.103,0.115-0.233,0.262-0.385,0.441
								c-0.064,0.077-0.126,0.168-0.193,0.266c-0.115,0.167-0.24,0.347-0.393,0.525l-0.633,0.738
								c-0.106,0.123-0.223,0.245-0.342,0.37c-0.105,0.11-0.214,0.223-0.32,0.345c-0.091,0.106-0.182,0.218-0.275,0.333
								c-0.111,0.137-0.225,0.278-0.346,0.417c-0.118,0.136-0.251,0.263-0.388,0.391c-0.103,0.096-0.208,0.193-0.302,0.302
								c-0.097,0.111-0.511,0.612-0.627,0.746l-0.65,0.728c-0.109,0.125-0.222,0.247-0.336,0.369
								c-0.107,0.115-0.216,0.232-0.321,0.353c-0.094,0.107-0.179,0.221-0.266,0.336c-0.109,0.144-0.219,0.289-0.339,0.427
								c-0.094,0.109-0.183,0.224-0.272,0.34c-0.108,0.142-0.218,0.283-0.336,0.419l-0.647,0.729l-0.631,0.744
								c-0.126,0.146-0.269,0.277-0.414,0.408c-0.099,0.089-0.2,0.177-0.287,0.278c-0.1,0.117-0.198,0.238-0.296,0.359
								c-0.106,0.131-0.212,0.262-0.322,0.39c-0.093,0.107-0.175,0.223-0.258,0.338c-0.108,0.149-0.217,0.298-0.337,0.438
								c-0.101,0.117-0.198,0.238-0.296,0.359c-0.107,0.133-0.214,0.266-0.325,0.395c-0.123,0.143-0.258,0.273-0.396,0.403
								c-0.101,0.096-0.203,0.19-0.292,0.295c-0.103,0.121-0.202,0.244-0.301,0.366c-0.106,0.132-0.212,0.263-0.322,0.392
								c-0.098,0.114-0.188,0.235-0.279,0.355c-0.106,0.141-0.213,0.282-0.327,0.416c-0.118,0.139-0.245,0.269-0.372,0.398
								c-0.103,0.104-0.206,0.208-0.3,0.319l-0.635,0.749c-0.108,0.128-0.219,0.253-0.329,0.377c-0.107,0.12-0.214,0.24-0.316,0.363
								c-0.103,0.123-0.51,0.636-0.617,0.763c-0.094,0.113-0.179,0.233-0.265,0.353c-0.105,0.147-0.211,0.293-0.326,0.431
								c-0.116,0.14-0.241,0.271-0.366,0.402c-0.101,0.105-0.202,0.209-0.293,0.32c-0.094,0.114-0.177,0.235-0.26,0.355
								c-0.103,0.148-0.206,0.294-0.317,0.432c-0.123,0.149-0.258,0.286-0.394,0.419c-0.097,0.096-0.194,0.191-0.279,0.294
								c-0.099,0.122-0.19,0.249-0.281,0.375c-0.101,0.14-0.202,0.279-0.308,0.411c-0.115,0.144-0.239,0.277-0.362,0.41
								c-0.099,0.105-0.197,0.209-0.284,0.32c-0.094,0.118-0.174,0.243-0.254,0.366c-0.098,0.15-0.195,0.298-0.301,0.434
								c-0.103,0.132-0.196,0.266-0.288,0.398c-0.092,0.133-0.184,0.263-0.278,0.387c-0.112,0.147-0.232,0.283-0.349,0.415
								c-0.095,0.107-0.189,0.211-0.27,0.321c-0.136,0.184-0.226,0.396-0.26,0.617c-0.045,0.288-0.042,0.536,0.01,0.736
								c0.224,0.858,0.369,1.556,0.042,2.064l-0.411,0.639L50.684,40.919z"/>
						</g>
					</g>
					<g>
						<g>
							<path class="st4" d="M50.92,36.557c-0.203,0.274-0.345,0.601-0.4,0.952c-0.051,0.328-0.065,0.692,0.026,1.044
								c0.156,0.598,0.301,1.209,0.138,1.463c0,0-0.047-0.03-0.047-0.03c-0.199,0.31-0.548,0.369-0.978,0.276
								c-0.319-0.069-0.706-0.16-1.038-0.421c-0.576-0.453-0.533-0.508-1.109-0.961c-0.338-0.266-0.601-0.573-0.764-0.89
								c-0.211-0.412-0.301-0.837-0.104-1.142c0,0-0.002-0.001-0.002-0.001c0.163-0.254,0.736-0.326,1.297-0.36
								c0.339-0.021,0.641-0.168,0.91-0.337c0.272-0.171,0.49-0.406,0.654-0.698c0.155-0.276,0.316-0.567,0.488-0.868
								c0.159-0.279,0.359-0.548,0.531-0.846c0.161-0.28,0.303-0.584,0.475-0.88c0.163-0.281,0.361-0.552,0.532-0.847
								c0.165-0.282,0.31-0.583,0.482-0.876c0.166-0.283,0.33-0.573,0.502-0.865c0.167-0.283,0.32-0.58,0.492-0.871
								c0.168-0.284,0.349-0.564,0.521-0.854c0.167-0.282,0.387-0.537,0.558-0.823c0.168-0.283,0.34-0.567,0.511-0.854
								c0.169-0.284,0.335-0.572,0.506-0.859c0.169-0.284,0.329-0.575,0.5-0.86c0.171-0.285,0.276-0.61,0.447-0.897
								c0.172-0.286,0.388-0.546,0.56-0.833c0.173-0.287,0.347-0.573,0.52-0.86c0.173-0.287,0.301-0.6,0.473-0.885
								c0.173-0.287,0.401-0.54,0.573-0.825c0.174-0.287,0.291-0.608,0.463-0.892c0.174-0.288,0.35-0.572,0.522-0.856
								c0.175-0.288,0.403-0.541,0.575-0.824c0.175-0.288,0.327-0.587,0.499-0.869c0.175-0.289,0.356-0.57,0.527-0.851
								c0.176-0.289,0.326-0.588,0.497-0.869c0.177-0.29,0.351-0.575,0.522-0.855c0.178-0.292,0.408-0.543,0.578-0.822
								c0.179-0.293,0.313-0.603,0.482-0.881c0.18-0.294,0.338-0.59,0.506-0.865c0.181-0.296,0.337-0.591,0.503-0.862
								c0.184-0.301,0.424-0.546,0.588-0.813c0.19-0.309,0.332-0.615,0.492-0.875c0.2-0.325,0.347-0.628,0.495-0.867
								c0.278-0.45,0.513-0.708,0.577-0.808c-0.198,0.308-0.175,0.323-0.373,0.631c0.184-0.287,0.358-0.612,0.619-0.876
								c0.245-0.248,0.534-0.46,0.886-0.597c0.302-0.118,0.65-0.208,1.055-0.185C68.5,7.03,68.861,7.083,69.25,7.215
								c0.305,0.103,0.64,0.249,0.997,0.437c0.322,0.169,0.585,0.389,0.816,0.595c0.268,0.239,0.472,0.508,0.631,0.778
								c0.179,0.304,0.304,0.619,0.364,0.933c0.065,0.341,0.074,0.686,0.02,1.002c-0.059,0.345-0.197,0.663-0.369,0.93
								c-0.003,0.005-0.004,0.005-0.007,0.011c-0.063,0.098-0.3,0.34-0.636,0.739c-0.178,0.21-0.339,0.502-0.582,0.785
								c-0.193,0.224-0.403,0.472-0.632,0.737c-0.199,0.23-0.437,0.454-0.661,0.713c-0.203,0.234-0.399,0.494-0.621,0.75
								c-0.206,0.237-0.469,0.438-0.689,0.692c-0.207,0.238-0.409,0.495-0.628,0.746c-0.209,0.24-0.432,0.477-0.65,0.728
								c-0.21,0.241-0.44,0.472-0.658,0.722c-0.209,0.241-0.388,0.515-0.604,0.763c-0.21,0.242-0.394,0.512-0.609,0.76
								c-0.211,0.243-0.433,0.481-0.648,0.729c-0.211,0.244-0.417,0.496-0.631,0.745c-0.212,0.245-0.487,0.438-0.701,0.686
								c-0.211,0.244-0.408,0.503-0.62,0.75c-0.211,0.245-0.382,0.528-0.594,0.775c-0.212,0.246-0.409,0.507-0.621,0.755
								c-0.212,0.248-0.477,0.451-0.689,0.7c-0.213,0.249-0.411,0.509-0.623,0.758c-0.213,0.249-0.396,0.524-0.608,0.773
								c-0.213,0.25-0.462,0.469-0.673,0.718c-0.213,0.251-0.425,0.501-0.636,0.75c-0.212,0.252-0.437,0.491-0.647,0.741
								c-0.212,0.253-0.409,0.515-0.618,0.764c-0.212,0.253-0.384,0.536-0.591,0.785c-0.211,0.254-0.457,0.475-0.662,0.724
								c-0.21,0.255-0.376,0.541-0.58,0.789c-0.21,0.257-0.471,0.466-0.673,0.716c-0.211,0.26-0.39,0.538-0.591,0.789
								c-0.209,0.26-0.452,0.484-0.65,0.733c-0.208,0.263-0.364,0.556-0.559,0.806c-0.207,0.265-0.38,0.542-0.57,0.791
								C51.341,36.082,51.104,36.31,50.92,36.557z"/>
						</g>
					</g>
				</g>
				<g>
					<path class="st5" d="M66.141,10.152c-1.033,2.449-2.364,4.731-3.994,6.831C63.177,14.532,64.513,12.254,66.141,10.152
						L66.141,10.152z"/>
				</g>
				<g>
					<path class="st5" d="M62.715,17.535c1.156-2.221,2.539-4.296,4.149-6.213C65.711,13.544,64.324,15.616,62.715,17.535
						L62.715,17.535z"/>
				</g>
				<g>
					<path class="st5" d="M67.626,12.112c-1.22,2.002-2.579,3.907-4.078,5.71C64.767,15.82,66.128,13.916,67.626,12.112
						L67.626,12.112z"/>
				</g>
				<g>
					<path class="st5" d="M64.244,18.465c1.249-1.921,2.583-3.782,4.004-5.579C67,14.807,65.664,16.667,64.244,18.465L64.244,18.465
						z"/>
				</g>
			</g>
			<path class="st5" d="M70.998,11.9c-0.034,0.092-0.099,0.199-0.201,0.325c-1.925,2.37-3.872,4.727-5.867,7.045
				c-2.578,2.995-5.174,5.975-7.736,8.984c-2.131,2.502-4.284,5.005-6.24,7.648c-0.089,0.121-0.178,0.242-0.266,0.364
				c-0.775,0.983-0.524,2.274-0.43,3.212c0.035,0.355-0.258,0.59-0.595,0.484c-0.691-0.216-1.732-1.007-2.235-1.677
				c0.545,0.537,1.295,1.054,1.832,1.22c0.337,0.104,0.626-0.14,0.59-0.495c-0.059-0.591-0.129-1.2-0.066-1.615
				c0.075-0.49,0.03-0.577,0.328-0.967c2.738-3.587,5.854-7.468,8.73-10.945c2.661-3.211,5.371-6.372,8.097-9.529
				c1.198-1.388,2.064-2.957,1.138-4.763c-0.88-1.716-1.142-2.546-0.969-3.169c0.068,0.778,0.736,1.63,1.858,2.512
				c0.352,0.277,0.748,0.494,1.167,0.65C70.597,11.358,71.167,11.447,70.998,11.9z"/>
		</g>
		<g>
			<g>
				<path d="M59.176,14.591c-0.344,0-0.794-0.018-1.227-0.161c-0.387-0.127-0.694-0.356-0.966-0.559l-0.093-0.069
					c-0.302-0.223-0.577-0.509-0.84-0.875c-0.255-0.354-0.437-0.707-0.555-1.078c-0.108-0.336-0.218-0.742-0.218-1.197
					c0-0.424,0.061-0.831,0.183-1.209c0.12-0.373,0.308-0.739,0.559-1.089c0.269-0.374,0.61-0.647,0.878-0.844
					c0.363-0.268,0.714-0.456,1.074-0.574c0.42-0.138,0.843-0.149,1.206-0.149l0.322-0.002c0.283,0,0.587,0.014,0.896,0.115
					c0.427,0.141,0.776,0.383,1.07,0.6c0.302,0.223,0.643,0.474,0.901,0.834c0.258,0.358,0.449,0.728,0.567,1.098
					c0.12,0.372,0.117,0.752,0.115,1.087l-0.001,0.134c0,0.336-0.018,0.777-0.156,1.208c-0.129,0.403-0.313,0.772-0.547,1.097
					c-0.213,0.297-0.492,0.567-0.876,0.851c-0.375,0.276-0.781,0.429-1.094,0.532C59.985,14.467,59.609,14.591,59.176,14.591z"/>
				<path class="st6" d="M62.43,10.652c0,0.355-0.024,0.7-0.126,1.021c-0.107,0.333-0.262,0.648-0.461,0.925
					c-0.202,0.28-0.465,0.511-0.742,0.715c-0.275,0.203-0.59,0.334-0.921,0.442c-0.32,0.105-0.649,0.221-1.004,0.221
					c-0.355,0-0.714-0.025-1.034-0.13c-0.331-0.109-0.612-0.336-0.887-0.539c-0.277-0.204-0.504-0.458-0.705-0.739
					c-0.199-0.277-0.362-0.574-0.469-0.906c-0.103-0.32-0.188-0.655-0.188-1.01c0-0.355,0.051-0.701,0.153-1.021
					c0.107-0.333,0.274-0.64,0.473-0.917c0.202-0.28,0.465-0.504,0.743-0.708c0.275-0.203,0.57-0.376,0.901-0.484
					c0.32-0.105,0.658-0.119,1.013-0.119c0.355,0,0.705-0.023,1.025,0.082c0.331,0.109,0.622,0.307,0.897,0.51
					c0.277,0.204,0.564,0.416,0.766,0.697c0.199,0.277,0.375,0.594,0.481,0.927C62.448,9.938,62.43,10.297,62.43,10.652z"/>
			</g>
			<g>
				<defs>
					<ellipse id="SVGID_00000114775975008026858720000002242831323618146956_" cx="59.176" cy="10.652" rx="3.276" ry="3.303"/>
				</defs>
				<clipPath id="SVGID_00000138542926668855641460000009166807488907425152_">
					<use xlink:href="#SVGID_00000114775975008026858720000002242831323618146956_"  style="overflow:visible;"/>
				</clipPath>
				<path style="clip-path:url(#SVGID_00000138542926668855641460000009166807488907425152_);fill:#B3B3B3;" d="M59.966,6.78
					c-0.281,0.299-0.398,0.902-0.437,1.288c-0.083,0.837,0.378,1.478,0.615,2.242c0.305,0.983,0.034,2.063-0.694,2.786
					c-0.538,0.535-1.212,0.747-1.945,0.826c0.504,0.166,5.684,2.341,5.711,2.3c0,0,4.23-5.945,4.23-5.945l-4.181-7.008
					C63.266,3.269,59.97,6.776,59.966,6.78z"/>
			</g>
			<g>
				<path class="st8" d="M61.035,7.962c-0.022-0.006-0.046,0.004-0.056,0.025c-0.011,0.024-0.001,0.052,0.023,0.063l0.331,0.155
					c-0.046,0.044-0.093,0.091-0.14,0.142l-0.428-0.113c-0.023-0.006-0.047,0.006-0.056,0.028c-0.009,0.024,0.003,0.052,0.027,0.061
					l0.357,0.139c-0.046,0.055-0.091,0.115-0.135,0.178l-0.461-0.028c-0.023-0.001-0.044,0.014-0.049,0.037
					c-0.006,0.025,0.01,0.051,0.036,0.056l0.375,0.083c-0.045,0.072-0.089,0.149-0.131,0.23l-0.476,0.019
					c-0.023,0.001-0.042,0.018-0.045,0.042c-0.003,0.026,0.015,0.049,0.041,0.053L60.65,9.18c-0.044,0.097-0.086,0.198-0.124,0.307
					l-0.435,0.087c-0.022,0.004-0.039,0.025-0.038,0.048c0.001,0.026,0.023,0.046,0.049,0.045l0.369-0.014
					c-0.025,0.081-0.047,0.166-0.068,0.253l-0.477,0.192c-0.021,0.008-0.033,0.03-0.029,0.053c0.005,0.026,0.03,0.043,0.055,0.038
					l0.407-0.077c-0.013,0.068-0.025,0.137-0.035,0.208c-0.008,0.056-0.014,0.11-0.02,0.164l-0.415,0.165
					c-0.021,0.008-0.034,0.031-0.029,0.054c0.006,0.026,0.031,0.042,0.056,0.036l0.37-0.08c-0.01,0.116-0.015,0.229-0.017,0.339
					l-0.426,0.188c-0.02,0.009-0.032,0.03-0.027,0.052c0.005,0.026,0.03,0.043,0.055,0.038l0.398-0.075
					c0.002,0.098,0.007,0.194,0.014,0.288l-0.478,0.2c-0.021,0.009-0.033,0.031-0.028,0.053c0.005,0.026,0.03,0.042,0.056,0.037
					l0.47-0.098c0.011,0.097,0.025,0.193,0.041,0.285l-0.446,0.271c-0.02,0.012-0.028,0.038-0.018,0.06
					c0.011,0.024,0.039,0.034,0.062,0.024l0.433-0.196c0.018,0.084,0.037,0.167,0.059,0.246l-0.389,0.322
					c-0.018,0.015-0.023,0.042-0.009,0.063c0.015,0.022,0.044,0.027,0.065,0.013l0.375-0.254c0.029,0.095,0.06,0.186,0.093,0.273
					l-0.35,0.354c-0.017,0.017-0.018,0.043-0.004,0.062c0.016,0.02,0.046,0.024,0.066,0.008l0.347-0.274
					c0.026,0.064,0.053,0.124,0.081,0.183l-0.286,0.318c-0.016,0.017-0.016,0.044-0.001,0.062c0.017,0.02,0.047,0.022,0.067,0.006
					l0.289-0.245c0.034,0.067,0.069,0.132,0.103,0.192c0.003,0.005,0.006,0.01,0.009,0.015l-0.261,0.266
					c-0.017,0.017-0.018,0.045-0.002,0.063c0.005,0.006,0.011,0.01,0.018,0.012c0.035-0.017,0.069-0.035,0.103-0.052l0.211-0.178
					c0.009,0.014,0.018,0.028,0.027,0.042c0.031-0.019,0.061-0.04,0.091-0.06c-0.007-0.011-0.014-0.021-0.021-0.033l0.143-0.053
					c0.046-0.034,0.091-0.069,0.135-0.105c-0.01-0.02-0.031-0.031-0.053-0.026l-0.291,0.074c-0.004-0.007-0.008-0.014-0.012-0.021
					c-0.033-0.058-0.066-0.12-0.099-0.184l0.29-0.059c0.022-0.005,0.039-0.025,0.038-0.048c-0.001-0.026-0.023-0.046-0.049-0.045
					l-0.348,0.013c-0.028-0.06-0.055-0.122-0.082-0.186l0.302-0.068c0.022-0.005,0.038-0.025,0.037-0.049
					c-0.001-0.026-0.024-0.046-0.05-0.045l-0.345,0.018c-0.033-0.087-0.064-0.178-0.092-0.273l0.32-0.042
					c0.023-0.003,0.041-0.023,0.041-0.047c0-0.026-0.021-0.047-0.047-0.047l-0.353,0.001c-0.021-0.077-0.04-0.158-0.057-0.24
					l0.3-0.018c0.022-0.001,0.041-0.018,0.044-0.042c0.003-0.026-0.015-0.049-0.041-0.053l-0.333-0.04
					c-0.015-0.085-0.028-0.173-0.038-0.262l0.323,0.053c0.021,0.003,0.042-0.008,0.051-0.028c0.01-0.024-0.001-0.052-0.025-0.062
					l-0.369-0.16c-0.007-0.09-0.012-0.183-0.014-0.277l0.389,0.1c0.021,0.005,0.044-0.004,0.054-0.024
					c0.012-0.023,0.003-0.052-0.02-0.064l-0.423-0.218c0.002-0.107,0.007-0.217,0.017-0.329l0.384,0.174
					c0.021,0.009,0.046,0.003,0.059-0.017c0.014-0.022,0.008-0.051-0.014-0.065l-0.412-0.267c0.006-0.054,0.012-0.107,0.02-0.162
					c0.01-0.071,0.022-0.139,0.035-0.206l0.37,0.222c0.019,0.011,0.044,0.008,0.06-0.009c0.017-0.019,0.016-0.049-0.004-0.067
					l-0.383-0.344c0.02-0.084,0.041-0.164,0.064-0.242l0.342,0.275c0.018,0.015,0.045,0.014,0.062-0.002
					c0.019-0.018,0.02-0.048,0.002-0.067L60.63,9.522c0.036-0.103,0.075-0.198,0.117-0.29l0.318,0.334
					c0.016,0.017,0.042,0.02,0.062,0.006c0.021-0.015,0.026-0.045,0.011-0.066L60.825,9.07c0.045-0.086,0.092-0.167,0.14-0.243
					l0.283,0.344c0.014,0.018,0.04,0.023,0.06,0.011c0.023-0.013,0.03-0.042,0.017-0.065L61.071,8.68
					c-0.001-0.002-0.003-0.002-0.004-0.004c0.038-0.053,0.077-0.104,0.117-0.152l0.256,0.329c0.015,0.019,0.041,0.024,0.062,0.011
					c0.022-0.014,0.029-0.043,0.015-0.065L61.28,8.415c0.05-0.054,0.099-0.103,0.148-0.149l0.2,0.35
					c0.011,0.02,0.035,0.029,0.057,0.021c0.024-0.009,0.037-0.036,0.028-0.061l-0.108-0.29c-0.081-0.082-0.165-0.159-0.252-0.232
					L61.035,7.962z"/>
				<path class="st8" d="M57.304,8.011c0.011,0.083,0.022,0.166,0.03,0.25L57.03,8.268c-0.023,0.001-0.043,0.018-0.046,0.042
					c-0.003,0.026,0.015,0.049,0.041,0.052l0.319,0.038c0.007,0.089,0.014,0.178,0.018,0.268l-0.341,0.006
					c-0.023,0-0.042,0.017-0.046,0.04c-0.004,0.026,0.014,0.05,0.04,0.054l0.352,0.053c0.002,0.083,0.004,0.166,0.003,0.25
					l-0.326-0.052c-0.02-0.003-0.041,0.007-0.05,0.027c-0.011,0.024-0.001,0.052,0.022,0.063l0.35,0.167
					c-0.002,0.088-0.006,0.177-0.012,0.266l-0.343-0.078c-0.02-0.005-0.042,0.005-0.052,0.024c-0.012,0.023-0.004,0.052,0.019,0.064
					l0.363,0.196c-0.008,0.104-0.019,0.209-0.031,0.315l-0.314-0.196c-0.018-0.011-0.043-0.009-0.059,0.007
					c-0.018,0.019-0.018,0.049,0,0.067l0.346,0.341c-0.014,0.104-0.027,0.207-0.044,0.313l-0.32-0.209
					c-0.018-0.012-0.043-0.01-0.06,0.006c-0.018,0.019-0.018,0.049,0,0.067l0.343,0.338c-0.018,0.103-0.038,0.205-0.059,0.31
					l-0.276-0.276c-0.017-0.017-0.043-0.019-0.062-0.004c-0.021,0.016-0.024,0.046-0.008,0.066l0.307,0.398
					c-0.026,0.118-0.054,0.237-0.084,0.356l-0.231-0.251c-0.016-0.017-0.042-0.02-0.062-0.007c-0.021,0.015-0.026,0.044-0.011,0.066
					l0.26,0.369c-0.018,0.07-0.038,0.141-0.058,0.211L56.7,11.77c-0.014-0.018-0.04-0.023-0.06-0.011
					c-0.023,0.013-0.03,0.042-0.017,0.065l0.24,0.413c-0.02,0.068-0.041,0.137-0.062,0.207l-0.227-0.294
					c-0.015-0.019-0.042-0.024-0.062-0.011c-0.022,0.014-0.029,0.043-0.015,0.065l0.253,0.406c-0.015,0.046-0.028,0.091-0.043,0.137
					l-0.184-0.227c-0.014-0.018-0.04-0.023-0.061-0.011c-0.022,0.013-0.03,0.042-0.017,0.065l0.203,0.345
					c-0.012,0.036-0.025,0.073-0.038,0.11c0.028,0.031,0.056,0.061,0.085,0.09c0.017-0.049,0.035-0.099,0.051-0.148l0.35,0.076
					c0.022,0.005,0.046-0.007,0.054-0.029c0.009-0.024-0.003-0.052-0.027-0.061l-0.328-0.126c0.019-0.058,0.036-0.115,0.055-0.173
					l0.351,0.043c0.023,0.003,0.046-0.012,0.051-0.035c0.006-0.025-0.009-0.051-0.034-0.057l-0.327-0.083
					c0.026-0.083,0.051-0.166,0.075-0.247l0.391,0.033c0.022,0.002,0.044-0.012,0.05-0.035c0.007-0.025-0.008-0.051-0.033-0.058
					l-0.363-0.097c0.024-0.086,0.049-0.173,0.072-0.258l0.466-0.012c0.024-0.001,0.043-0.019,0.046-0.043
					c0.002-0.026-0.017-0.049-0.043-0.051l-0.433-0.04c0.034-0.133,0.065-0.265,0.094-0.396l0.529-0.126
					c0.023-0.005,0.039-0.027,0.036-0.051c-0.003-0.026-0.027-0.044-0.052-0.041l-0.477,0.057c0.024-0.114,0.045-0.227,0.065-0.339
					l0.525-0.147c0.022-0.006,0.037-0.027,0.034-0.05c-0.003-0.026-0.026-0.045-0.052-0.042l-0.473,0.047
					c0.017-0.106,0.031-0.21,0.045-0.314l0.528-0.217c0.02-0.008,0.033-0.03,0.028-0.053c-0.005-0.026-0.03-0.042-0.056-0.037
					l-0.474,0.093c0.013-0.116,0.025-0.231,0.034-0.344l0.429-0.189c0.019-0.009,0.031-0.03,0.028-0.051
					c-0.004-0.026-0.029-0.043-0.055-0.039l-0.389,0.067c0.005-0.095,0.01-0.19,0.012-0.284l0.368-0.252
					c0.018-0.012,0.025-0.035,0.018-0.056c-0.009-0.025-0.036-0.037-0.061-0.028l-0.321,0.12c0-0.082-0.002-0.163-0.004-0.243
					l0.388-0.259c0.019-0.013,0.027-0.038,0.016-0.06c-0.011-0.023-0.04-0.033-0.063-0.022L57.471,8.63
					c-0.004-0.083-0.011-0.166-0.017-0.248l0.377-0.254c0.02-0.013,0.027-0.039,0.015-0.061c-0.012-0.023-0.041-0.032-0.064-0.02
					l-0.341,0.178c-0.008-0.082-0.02-0.163-0.03-0.245l0.332-0.284c0.018-0.016,0.022-0.043,0.008-0.063
					c-0.015-0.021-0.044-0.026-0.066-0.011l-0.295,0.208c-0.004-0.026-0.009-0.052-0.014-0.078c-0.034,0.02-0.068,0.042-0.101,0.064
					c0.004,0.022,0.008,0.044,0.011,0.066l-0.138,0.02c-0.051,0.036-0.1,0.074-0.149,0.112c0.004,0.001,0.008,0.002,0.013,0.002
					L57.304,8.011z"/>
			</g>
		</g>
	</g>
</g>
</svg>
